<?xml version="1.0" encoding="UTF-8"?>
<svg width="719.729348px" height="720.438324px" viewBox="0 0 719.729348 720.438324" version="1.1" xmlns="http://www.w3.org/2000/svg" xmlns:xlink="http://www.w3.org/1999/xlink">
    <title>Group 9</title>
    <defs>
        <radialGradient cx="50%" cy="50%" fx="50%" fy="50%" r="27.1147182%" gradientTransform="translate(0.500000,0.500000),scale(0.984043,1.000000),rotate(90.000000),scale(1.000000,1.011438),translate(-0.500000,-0.500000)" id="radialGradient-1">
            <stop stop-color="#B8BB57" stop-opacity="0.0819834462" offset="0%"></stop>
            <stop stop-color="#F70088" stop-opacity="0.653509927" offset="100%"></stop>
        </radialGradient>
        <radialGradient cx="50%" cy="50%" fx="50%" fy="50%" r="357.565475%" gradientTransform="translate(0.500000,0.500000),scale(0.265501,1.000000),rotate(24.968330),scale(1.000000,1.023088),translate(-0.500000,-0.500000)" id="radialGradient-2">
            <stop stop-color="#2FCAF5" offset="0%"></stop>
            <stop stop-color="#B8BB57" stop-opacity="0.409876257" offset="100%"></stop>
            <stop stop-color="#008FF7" stop-opacity="0.325847492" offset="100%"></stop>
        </radialGradient>
        <radialGradient cx="50%" cy="50%" fx="50%" fy="50%" r="194.489351%" gradientTransform="translate(0.500000,0.500000),scale(0.701640,1.000000),rotate(50.900836),scale(1.000000,1.023088),translate(-0.500000,-0.500000)" id="radialGradient-3">
            <stop stop-color="#2FCAF5" offset="0%"></stop>
            <stop stop-color="#B8BB57" stop-opacity="0.409876257" offset="52.8090897%"></stop>
            <stop stop-color="#008FF7" stop-opacity="0.325847492" offset="100%"></stop>
        </radialGradient>
        <radialGradient cx="50%" cy="50%" fx="50%" fy="50%" r="56.3395117%" gradientTransform="translate(0.500000,0.500000),scale(0.978552,1.000000),rotate(90.000000),scale(1.000000,1.023088),translate(-0.500000,-0.500000)" id="radialGradient-4">
            <stop stop-color="#43FFED" stop-opacity="0.217829778" offset="0%"></stop>
            <stop stop-color="#B8BB57" stop-opacity="0.0819834462" offset="19.3850378%"></stop>
            <stop stop-color="#F70088" stop-opacity="0.591580904" offset="100%"></stop>
        </radialGradient>
        <radialGradient cx="50%" cy="50%" fx="50%" fy="50%" r="325.716129%" gradientTransform="translate(0.500000,0.500000),scale(1.000000,0.480468),rotate(74.679253),scale(1.000000,1.021527),translate(-0.500000,-0.500000)" id="radialGradient-5">
            <stop stop-color="#000000" offset="0%"></stop>
            <stop stop-color="#B8BB57" stop-opacity="0.589741313" offset="52.8090897%"></stop>
            <stop stop-color="#008FF7" offset="100%"></stop>
        </radialGradient>
        <radialGradient cx="50%" cy="50%" fx="50%" fy="50%" r="243.708846%" gradientTransform="translate(0.500000,0.500000),scale(1.000000,0.661972),rotate(69.320980),scale(1.000000,1.021527),translate(-0.500000,-0.500000)" id="radialGradient-6">
            <stop stop-color="#23BAFF" offset="0%"></stop>
            <stop stop-color="#B8BB57" stop-opacity="0.589741313" offset="100%"></stop>
            <stop stop-color="#008FF7" offset="100%"></stop>
        </radialGradient>
        <linearGradient x1="16.8916138%" y1="1.58301268%" x2="83.1083862%" y2="98.4169873%" id="linearGradient-7">
            <stop stop-color="#B8BB57" offset="0%"></stop>
            <stop stop-color="#DC5073" offset="13.8535293%"></stop>
            <stop stop-color="#F70088" offset="100%"></stop>
        </linearGradient>
        <radialGradient cx="50%" cy="50%" fx="50%" fy="50%" r="357.7018%" gradientTransform="translate(0.500000,0.500000),scale(0.265378,1.000000),rotate(24.958163),scale(1.000000,1.023088),translate(-0.500000,-0.500000)" id="radialGradient-8">
            <stop stop-color="#FF9425" offset="0%"></stop>
            <stop stop-color="#F39B2E" offset="35.9272563%"></stop>
            <stop stop-color="#B8BB57" offset="100%"></stop>
            <stop stop-color="#008FF7" stop-opacity="0.325847492" offset="100%"></stop>
        </radialGradient>
        <radialGradient cx="50%" cy="50%" fx="50%" fy="50%" r="194.489351%" gradientTransform="translate(0.500000,0.500000),scale(0.701640,1.000000),rotate(50.900836),scale(1.000000,1.021527),translate(-0.500000,-0.500000)" id="radialGradient-9">
            <stop stop-color="#23BAFF" offset="0%"></stop>
            <stop stop-color="#B8BB57" offset="100%"></stop>
            <stop stop-color="#008FF7" offset="100%"></stop>
        </radialGradient>
        <radialGradient cx="50%" cy="50%" fx="50%" fy="50%" r="60.3717062%" gradientTransform="translate(0.500000,0.500000),scale(0.978552,1.000000),rotate(55.914535),scale(1.000000,1.023088),translate(-0.500000,-0.500000)" id="radialGradient-10">
            <stop stop-color="#B8BB57" offset="0%"></stop>
            <stop stop-color="#F70088" offset="100%"></stop>
        </radialGradient>
        <radialGradient cx="50%" cy="50%" fx="50%" fy="50%" r="243.708846%" gradientTransform="translate(0.500000,0.500000),scale(1.000000,0.661972),rotate(69.320980),scale(1.000000,1.021527),translate(-0.500000,-0.500000)" id="radialGradient-11">
            <stop stop-color="#23BAFF" offset="0%"></stop>
            <stop stop-color="#B8BB57" offset="100%"></stop>
            <stop stop-color="#008FF7" offset="100%"></stop>
        </radialGradient>
        <radialGradient cx="50%" cy="50%" fx="50%" fy="50%" r="188.337715%" gradientTransform="translate(0.500000,0.500000),scale(0.763977,1.000000),rotate(53.264361),scale(1.000000,1.021527),translate(-0.500000,-0.500000)" id="radialGradient-12">
            <stop stop-color="#FF58AC" offset="0%"></stop>
            <stop stop-color="#B8BB57" offset="100%"></stop>
            <stop stop-color="#008FF7" offset="100%"></stop>
        </radialGradient>
        <radialGradient cx="50%" cy="50%" fx="50%" fy="50%" r="229.662678%" gradientTransform="translate(0.500000,0.500000),scale(0.497177,1.000000),rotate(41.086756),scale(1.000000,2.139164),translate(-0.500000,-0.500000)" id="radialGradient-13">
            <stop stop-color="#BDF66F" offset="0%"></stop>
            <stop stop-color="#B8BB57" offset="100%"></stop>
            <stop stop-color="#008FF7" offset="100%"></stop>
        </radialGradient>
        <radialGradient cx="50%" cy="50%" fx="50%" fy="50%" r="177.7517%" gradientTransform="translate(0.500000,0.500000),scale(0.916667,1.000000),rotate(58.117322),scale(1.000000,1.023088),translate(-0.500000,-0.500000)" id="radialGradient-14">
            <stop stop-color="#FF9425" offset="0%"></stop>
            <stop stop-color="#F39B2E" offset="35.9272563%"></stop>
            <stop stop-color="#B8BB57" offset="100%"></stop>
            <stop stop-color="#008FF7" stop-opacity="0.325847492" offset="100%"></stop>
        </radialGradient>
        <radialGradient cx="50%" cy="50%" fx="50%" fy="50%" r="184.345841%" gradientTransform="translate(0.500000,0.500000),scale(1.000000,0.925843),rotate(62.170121),scale(1.000000,1.021527),translate(-0.500000,-0.500000)" id="radialGradient-15">
            <stop stop-color="#23BAFF" offset="0%"></stop>
            <stop stop-color="#B8BB57" offset="100%"></stop>
            <stop stop-color="#008FF7" offset="100%"></stop>
        </radialGradient>
    </defs>
    <g id="Page-1" stroke="none" stroke-width="1" fill="none" fill-rule="evenodd">
        <g id="Group-9" transform="translate(-0.000000, 0.000000)">
            <g id="Group-13" transform="translate(0.389352, 0.000000)">
                <rect id="Rectangle" fill-opacity="0.7409207" fill="#F3FFCF" x="0" y="2.46571642" width="717.972607" height="717.972607" rx="93"></rect>
                <path d="M83.9659673,501 L107.064223,521.838543 C108.507047,518.372342 110.28848,514.092828 112.408522,509 L251.461904,639.505632 C252.891889,656.100725 251.471747,666.680473 247.201479,671.244877 C242.931211,675.809281 233.464763,680.727655 218.802134,686 C122.267378,597.307562 74,552.961344 74,552.961344 C74,552.961344 80.5686647,548.522578 87.4093334,543.781447 C71.8028103,530.9672 64,524.560297 64,524.560297 C64,524.560297 64.3158419,524.341446 64.8449584,523.970742 L65.1541021,523.753883 C66.3058191,522.944986 68.1668757,521.627037 70.0236171,520.266203 L70.5533807,519.876629 C72.6670337,518.316886 74.6862769,516.759116 75.5458295,515.899168 C75.856848,515.588007 76.144675,515.126614 76.4093105,514.514989 C76.7047092,513.832264 79.2235948,509.327267 83.9659673,501 Z" id="Combined-Shape" fill="url(#radialGradient-1)" transform="translate(158.000000, 593.500000) scale(-1, 1) translate(-158.000000, -593.500000) "></path>
                <path d="M0,190.915937 L717.501505,190.915937 L717.501505,114.5 C722.061504,83.9610112 716.735428,58.7943445 701.523277,39 C686.311125,19.2056555 662.161064,6.20565547 629.073094,0 L80.6886138,0 C58.1754804,4.35695417 39.6851456,16.1259986 25.2176096,35.3071334 C10.7500736,54.4882681 2.34420372,79.5236898 0,110.413398 L0,190.915937 Z" id="Path-2" fill="url(#radialGradient-2)"></path>
                <path d="M683.274109,584.003551 C670.417954,584.003551 607.694834,592.174043 582.864837,612.836318 C564.742874,627.916505 545.011259,663.638916 523.669993,720.003551 L716.389815,584.003551 C721.243267,584.003551 710.204698,584.003551 683.274109,584.003551 Z" id="Path" fill="url(#radialGradient-3)"></path>
                <g id="Group-12" transform="translate(194.000000, 213.000000)" fill="url(#radialGradient-4)">
                    <ellipse id="Oval" cx="186.5" cy="182.5" rx="186.5" ry="182.5"></ellipse>
                </g>
                <circle id="Oval" fill="#FFFFFF" cx="136.5" cy="95.5" r="48.5"></circle>
                <circle id="Oval" fill="#FFFFFF" cx="586.5" cy="95.5" r="48.5"></circle>
                <path d="M161.5,84.1708565 C157.85473,99.1004369 149.521396,106.565227 136.5,106.565227 C123.478604,106.565227 115.304229,99.1004369 111.976876,84.1708565 L111.5,2.5 L161.5,2.5 L161.5,84.1708565 Z" id="Path-6" fill="url(#radialGradient-5)"></path>
                <path d="M611.5,84.1708565 C607.85473,99.1004369 599.521396,106.565227 586.5,106.565227 C573.478604,106.565227 565.304229,99.1004369 561.976876,84.1708565 L561.5,2.5 L611.5,2.5 L611.5,84.1708565 Z" id="Path-6" fill="url(#radialGradient-5)"></path>
            </g>
            <path d="M329.038324,320.056581 C356.570287,290.647806 401.208418,290.647806 428.740381,320.056581 C454.179742,347.230104 456.113292,390.003842 434.541032,419.548793 L378.825791,511 L322.607695,418.672822 C301.70574,389.163576 303.849283,346.96272 329.038324,320.056581 Z M379.389352,337 C356.193393,337 337.389352,355.804041 337.389352,379 C337.389352,402.195959 356.193393,421 379.389352,421 C402.585312,421 421.389352,402.195959 421.389352,379 C421.389352,355.804041 402.585312,337 379.389352,337 Z" id="Location-pin" fill="url(#radialGradient-6)"></path>
            <g id="Group-13" transform="translate(0.000000, 0.000000)">
                <rect id="Rectangle" fill="#FAFFEA" x="0.389352488" y="2.46571642" width="717.972607" height="717.972607" rx="93"></rect>
                <path d="M84.3553198,501 L107.453576,521.838543 C108.8964,518.372342 110.677833,514.092828 112.797874,509 L251.851256,639.505632 C253.281241,656.100725 251.861099,666.680473 247.590831,671.244877 C243.320563,675.809281 233.854115,680.727655 219.191487,686 C122.656731,597.307562 74.3893525,552.961344 74.3893525,552.961344 C74.3893525,552.961344 80.9580172,548.522578 87.7986859,543.781447 C72.1921628,530.9672 64.3893525,524.560297 64.3893525,524.560297 C64.3893525,524.560297 64.7051944,524.341446 65.2343109,523.970742 L65.5434546,523.753883 C66.6951716,522.944986 68.5562282,521.627037 70.4129696,520.266203 L70.9427332,519.876629 C73.0563862,518.316886 75.0756294,516.759116 75.935182,515.899168 C76.2462005,515.588007 76.5340274,515.126614 76.7986629,514.514989 C77.0940616,513.832264 79.6129473,509.327267 84.3553198,501 Z" id="Combined-Shape" fill="url(#linearGradient-7)" transform="translate(158.389352, 593.500000) scale(-1, 1) translate(-158.389352, -593.500000) "></path>
                <path d="M0.389352488,190.915937 L719.468349,191 L719.468349,110.413398 C720.040615,94.1418425 719.671819,82.5229356 718.36196,75.5566779 C715.531384,60.5027565 708.821077,47.4970003 701.912629,39 C685.857106,19.2526146 661.707045,6.25261459 629.462447,0 L81.0779663,0 C54.1486406,6.81886526 33.4502097,19.8188653 18.9826737,39 C4.51513762,58.1811347 -1.6826361,81.9856009 0.389352488,110.413398 L0.389352488,190.915937 Z" id="Path-2" fill="url(#radialGradient-8)"></path>
                <path d="M683.663462,584.003551 C670.807307,584.003551 608.084186,592.174043 583.254189,612.836318 C565.132226,627.916505 545.400611,663.638916 524.059345,720.003551 L716.779168,584.003551 C721.632619,584.003551 710.594051,584.003551 683.663462,584.003551 Z" id="Path" fill="url(#radialGradient-9)"></path>
                <g id="Group-12" transform="translate(194.389352, 213.000000)" fill="url(#radialGradient-10)">
                    <ellipse id="Oval" cx="186.5" cy="182.5" rx="186.5" ry="182.5"></ellipse>
                </g>
                <g id="Group-12" transform="translate(228.389352, 247.000000)" fill="#FAFFEA">
                    <ellipse id="Oval" cx="152.5" cy="149" rx="152.5" ry="149"></ellipse>
                </g>
            </g>
            <path d="M329.038324,320.056581 C356.570287,290.647806 401.208418,290.647806 428.740381,320.056581 C454.179742,347.230104 456.113292,390.003842 434.541032,419.548793 L378.825791,511 L322.607695,418.672822 C301.70574,389.163576 303.849283,346.96272 329.038324,320.056581 Z M379.389352,337 C356.193393,337 337.389352,355.804041 337.389352,379 C337.389352,402.195959 356.193393,421 379.389352,421 C402.585312,421 421.389352,402.195959 421.389352,379 C421.389352,355.804041 402.585312,337 379.389352,337 Z" id="Location-pin" fill="url(#radialGradient-11)"></path>
            <circle id="Oval" fill="#FAFFEA" cx="379.389352" cy="379" r="42"></circle>
            <path d="M0.389352488,191 L171.737152,190.929038 L203.372241,190.915937 C195.364583,185.966099 195.364583,177.188943 203.372241,164.584471 C203.810012,163.895395 209.126407,171.327722 209.699088,170.641648 C218.858594,159.668524 239.091726,140.748977 235.988188,123.362439 C235.820306,122.421935 240.543587,107.777869 250.158033,79.4302397 C233.233392,76.6581879 225.977166,68.3589792 228.389352,54.5326135 C230.801539,40.7062479 233.334484,22.52871 235.988188,0 L81.0779663,0 C57.6154834,4.26465189 37.8823253,15.4794722 21.878492,33.6444609 C5.87465868,51.8094496 -1.28838782,72.4279626 0.389352488,95.5 L0.389352488,191 Z" id="Path-4" fill="url(#radialGradient-12)"></path>
            <circle id="Oval" fill="#FAFFEA" cx="136.889352" cy="95.5" r="48.5"></circle>
            <circle id="Oval" fill="#FAFFEA" cx="586.889352" cy="95.5" r="48.5"></circle>
            <path d="M161.889352,84.1708565 C158.244082,99.1004369 149.910749,106.565227 136.889352,106.565227 C123.867956,106.565227 115.693582,99.1004369 112.366228,84.1708565 L112.366228,0 L161.889352,0 L161.889352,84.1708565 Z" id="Path-6" fill="#000000"></path>
            <path d="M611.889352,84.1708565 C608.244082,99.1004369 599.910749,106.565227 586.889352,106.565227 C573.867956,106.565227 565.693582,99.1004369 562.366228,84.1708565 L562.366228,0 L611.889352,0 L611.889352,84.1708565 Z" id="Path-6" fill="#000000"></path>
            <path d="M241.816981,0 C224.679154,11.2825535 212.447566,26.9492202 205.122217,47 C194.134195,77.0761697 241.816981,75.0606887 241.816981,103.260014 C241.816981,131.459338 194.873618,151.176933 178.994457,163.112763 C168.40835,171.069983 174.678658,180.337707 197.80538,190.915937 L558.00827,190.915937 C511.592556,180.805113 483.04767,172.799821 472.373612,166.900058 C461.699554,161.000296 458.392527,151.400409 462.45253,138.100397 C434.515828,130.512031 424.210479,122.845134 431.536485,115.099706 C442.525495,103.481563 504.181107,123.3047 419.354401,79.5712017 C334.527695,35.8377033 445.50464,68.5913055 439.662949,54.5326135 C435.768488,45.1601522 456.231433,26.9826144 501.051784,0 L241.816981,0 Z" id="Path-7" fill="url(#radialGradient-13)"></path>
            <g id="heart-face" transform="translate(355.389379, 360.000026)" fill="url(#radialGradient-14)">
                <path d="M4.12297585,4.15346931 C9.62041554,-1.38448977 18.533414,-1.38448977 24.0308537,4.15346931 L23.882,4.008 L23.9999737,3.89002437 L24.1155839,4.00799666 C29.623744,-1.38405758 38.4280969,-1.33556669 43.8769715,4.15346931 C49.3742726,9.69156694 49.3742726,18.670485 43.8769715,24.2085826 C43.3599182,24.7294468 42.8126508,25.201322 42.2408526,25.624208 L23.9999737,43.9999738 L5.75909475,25.624208 C5.18729657,25.201322 4.6400291,24.7294468 4.12297585,24.2085826 C-1.37432528,18.670485 -1.37432528,9.69156694 4.12297585,4.15346931 Z" id="Combined-Shape"></path>
            </g>
            <path d="M546.868229,191 C548.768935,175.400908 545.942643,163.381835 538.389352,154.942781 C527.059417,142.284201 475.917944,148.591456 498.276202,106.565227 C506.187172,91.6951847 532.251448,27.2559596 524.059345,17.2495745 C518.597943,10.5786511 510.003562,4.82879297 498.276202,0 L380.889352,0 C367.880185,24.8635809 367.213519,43.0411187 378.889352,54.5326135 C385.882493,61.4153458 403.387304,75.0095261 402.570249,85.2779015 C402.07921,91.4490727 381.785576,104.724356 376.42109,116.791299 C371.056604,128.858243 425.146982,142.398151 421.389352,154.942781 C419.473095,161.340097 404.483674,173.35917 376.42109,191 L546.868229,191 Z" id="Path-8" fill="url(#radialGradient-15)"></path>
        </g>
    </g>
</svg>